<svg width="40" height="40" viewBox="0 0 40 40" fill="none" xmlns="http://www.w3.org/2000/svg">
<rect width="40" height="40" rx="8" fill="url(#paint0_linear_1_5)"/>
<path d="M29.6473 10.5223C29.6311 10.4438 29.5707 10.3818 29.4927 10.3634C26.9436 9.74 21.0552 11.9614 17.8616 15.1527C17.2924 15.7172 16.7734 16.3301 16.3105 16.9845C15.3261 16.8955 14.3417 16.9705 13.5036 17.3361C11.1369 18.3767 10.4483 21.0945 10.2561 22.2612C10.235 22.3908 10.2754 22.5228 10.3654 22.6184C10.4555 22.7139 10.5849 22.7621 10.7155 22.7487L14.5156 22.3316C14.5183 22.6182 14.5355 22.9045 14.5672 23.1894C14.587 23.3863 14.6749 23.5701 14.8156 23.7092L16.287 25.1806C16.4263 25.3215 16.6103 25.4093 16.8073 25.4291C17.0905 25.4606 17.3751 25.4779 17.66 25.4806L17.2433 29.2775C17.2301 29.4079 17.2783 29.5371 17.3737 29.627C17.4691 29.7169 17.6009 29.7573 17.7303 29.7364C18.8975 29.5489 21.6209 28.8603 22.6555 26.4941C23.0211 25.655 23.0961 24.6758 23.0117 23.6961C23.6681 23.2336 24.2828 22.7146 24.8488 22.145C28.0541 18.9575 30.2614 13.1984 29.6473 10.5223V10.5223M21.9997 18.0158C21.4272 17.4434 21.2558 16.5824 21.5656 15.8344C21.8754 15.0865 22.6052 14.5987 23.4148 14.5987C24.2244 14.5987 24.9543 15.0865 25.2641 15.8344C25.5739 16.5824 25.4025 17.4434 24.83 18.0158C24.455 18.3916 23.9458 18.6028 23.4148 18.6028C22.8839 18.6028 22.3747 18.3916 21.9997 18.0158V18.0158" stroke="white" stroke-width="1.5" stroke-linecap="round" stroke-linejoin="round"/>
<path d="M13.1394 24.5C12.6721 24.5574 12.2374 24.7692 11.9042 25.1019C11.0783 25.9306 11 29 11 29C11 29 14.0712 28.9217 14.8977 28.0948C15.2317 27.7622 15.4439 27.3268 15.5 26.8588" stroke="white" stroke-width="1.5" stroke-linecap="round" stroke-linejoin="round"/>
<defs>
<linearGradient id="paint0_linear_1_5" x1="0" y1="0" x2="40" y2="40" gradientUnits="userSpaceOnUse">
<stop stop-color="#22D3EE"/>
<stop offset="1" stop-color="#9333EA"/>
</linearGradient>
</defs>
</svg>
